<svg id="Group_226" data-name="Group 226" xmlns="http://www.w3.org/2000/svg" width="46.684" height="36.441" viewBox="0 0 46.684 36.441">
  <path id="Path_143" data-name="Path 143" d="M43.353,47.767c-.189-1.419-.215-3.863,1.1-4.684a.494.494,0,0,0,.062-.055c1.078-.345,1.823-.828,1.238-1.479l-15.9-4.79L4.118,40.337s-2.948.421-2.684,5c.143,2.492.925,3.717,1.608,4.319L.93,50.293c-.586.651.159,1.135,1.237,1.479a.426.426,0,0,0,.062.056c1.317.821,1.292,3.265,1.1,4.685C-1.4,57.856.3,58.294.3,58.294l1.038.251c-.73.66-1.455,1.911-1.32,4.284C.279,67.408,2.7,67.724,2.7,67.724L19.545,73.2,44.97,67.041s1.7-.439-3.034-1.782c-.19-1.417-.217-3.861,1.1-4.684a.389.389,0,0,0,.062-.055c1.078-.345,1.823-.828,1.237-1.479l-1.105-.334c.737-.444,1.844-1.606,2.018-4.623A5.355,5.355,0,0,0,44.2,50.077l2.184-.529S48.086,49.111,43.353,47.767Zm-21.266-.059,4.276-.879L40.811,43.86l2.153-.443a7.453,7.453,0,0,0-.545,4.089c.025.251.054.479.082.653l-2.356.586L21.907,53.282ZM3.721,52.164l2.152.443,13.876,2.852,1.212.248h0l3.635.747.179,5.574L6.033,57.366l-1.848-.459c.027-.174.056-.4.082-.654A7.455,7.455,0,0,0,3.721,52.164Zm-.836-7.047a3.615,3.615,0,0,1,.63-2.547,1.144,1.144,0,0,1,.835-.345,1.415,1.415,0,0,1,.211.017l11.091,3.616,5.533,1.8L21,53.275,5.48,48.922l-.819-.229a.5.5,0,0,0-.1-.016C4.494,48.673,2.959,48.531,2.885,45.117Zm16.7,25.65L3.243,66.186a.486.486,0,0,0-.1-.016c-.065,0-1.6-.145-1.675-3.559a3.618,3.618,0,0,1,.63-2.548,1.146,1.146,0,0,1,.835-.345,1.476,1.476,0,0,1,.212.016h0l16.623,5.421ZM41,65c.026.251.054.48.082.654L20.489,70.776l.18-5.574,4.4-.905.65.157,2.437-.792,11.234-2.308,2.153-.443A7.446,7.446,0,0,0,41,65Zm1.134-7.576a.4.4,0,0,0-.11.017l-1.553.435L25.682,62.022,25.5,56.409l4.852-1.583L42.1,50.994a1.224,1.224,0,0,1,1.071.323,3.62,3.62,0,0,1,.63,2.547C43.725,57.277,42.19,57.419,42.134,57.423Z" transform="translate(0.001 -36.758)" fill="#fff"/>
</svg>
