<svg id="Group_228" data-name="Group 228" xmlns="http://www.w3.org/2000/svg" width="39.048" height="38.152" viewBox="0 0 39.048 38.152">
  <g id="united" transform="translate(0 0)">
    <path id="Path_144" data-name="Path 144" d="M192.577,176.119l-8.612-8.612a1.379,1.379,0,1,1,1.95-1.95l-2.218-2.217a1.376,1.376,0,0,1-.4-.976,1.409,1.409,0,0,1,.018-.221,1.377,1.377,0,0,1,2.206-.868l-.844-.844a1.379,1.379,0,0,1-.405-.977,1.319,1.319,0,0,1,.018-.224,1.38,1.38,0,0,1,2.337-.749l.966.966a1.379,1.379,0,1,1,1.95-1.95l5.6,5.6.016-.022a2.522,2.522,0,0,1,3.57,0l2.61,2.61a2.678,2.678,0,0,1,.784,1.89v1.633a2.882,2.882,0,0,0,.845,2.035l.582.582-6.656,6.656-.744-.744a2.882,2.882,0,0,0-1.85-.838A2.675,2.675,0,0,1,192.577,176.119Zm0,0" transform="translate(-169.314 -145.111)" fill="#fff"/>
    <path id="Path_145" data-name="Path 145" d="M353.617,349.425l7.555-7.555a.637.637,0,0,1,.9,0l2.691,2.69a.638.638,0,0,1,0,.9l-7.555,7.555a.638.638,0,0,1-.9,0l-2.691-2.691A.637.637,0,0,1,353.617,349.425Zm0,0" transform="translate(-326.475 -315.624)" fill="#fff"/>
    <path id="Path_146" data-name="Path 146" d="M74.123,176.129l8.612-8.612a1.379,1.379,0,1,0-1.95-1.95L83,163.349a1.378,1.378,0,0,0-1.819-2.064l.844-.844a1.379,1.379,0,0,0,.405-.977,1.319,1.319,0,0,0-.018-.224,1.374,1.374,0,0,0-1.141-1.137,1.379,1.379,0,0,0-1.2.387l-.966.967a1.379,1.379,0,0,0,.387-1.2,1.365,1.365,0,0,0-.386-.755,1.38,1.38,0,0,0-1.952,0l-5.6,5.6-.016-.022a2.522,2.522,0,0,0-3.57,0l-2.609,2.61a2.677,2.677,0,0,0-.784,1.89l0,1.633a2.88,2.88,0,0,1-.844,2.035l-.582.582,6.656,6.656.744-.744a2.883,2.883,0,0,1,1.85-.838A2.678,2.678,0,0,0,74.123,176.129Zm0,0" transform="translate(-58.34 -145.121)" fill="#fff"/>
    <path id="Path_147" data-name="Path 147" d="M18.829,349.433l-7.555-7.555a.637.637,0,0,0-.9,0l-2.691,2.691a.638.638,0,0,0,0,.9l7.555,7.555a.637.637,0,0,0,.9,0l2.691-2.691A.638.638,0,0,0,18.829,349.433Zm0,0" transform="translate(-6.923 -315.632)" fill="#fff"/>
    <path id="Path_148" data-name="Path 148" d="M163.866,78.822V91a1.379,1.379,0,1,1-2.758,0v3.136a1.378,1.378,0,0,1-2.746.173V95.5a1.379,1.379,0,0,1-.4.977,1.289,1.289,0,0,1-.172.146A1.379,1.379,0,0,1,155.6,95.5V94.138a1.379,1.379,0,1,1-2.758,0V86.223l-.027,0A2.522,2.522,0,0,1,150.3,83.7V80.011a2.679,2.679,0,0,1,.782-1.891l1.153-1.155a2.882,2.882,0,0,0,.842-2.037v-.823h9.413v1.052a2.884,2.884,0,0,0,.715,1.9,2.675,2.675,0,0,1,.664,1.765Zm0,0" transform="translate(-138.835 -68.454)" fill="#fedfc5"/>
    <path id="Path_149" data-name="Path 149" d="M156.712,165.565a1.38,1.38,0,0,0-1.952,0l2.218-2.218a1.378,1.378,0,0,0-1.819-2.064l.844-.844a1.379,1.379,0,0,0,.4-.977,1.293,1.293,0,0,0-.018-.224,1.38,1.38,0,0,0-2.337-.75l-.966.966a1.378,1.378,0,0,0,.387-1.2,1.365,1.365,0,0,0-.386-.755,1.38,1.38,0,0,0-1.952,0l-5.6,5.6-.016-.022a2.513,2.513,0,0,0-2.284-.686,3.672,3.672,0,0,0,1.435,1.263,3.72,3.72,0,0,0,.508.206v6.94a2.526,2.526,0,0,0,3.016,2.477,2.528,2.528,0,0,0,1.463,1.284l7.049-7.05A1.379,1.379,0,0,0,156.712,165.565Zm0,0" transform="translate(-132.314 -145.12)" fill="#fff"/>
    <path id="Path_150" data-name="Path 150" d="M195.478,167.661v-4.871a2.51,2.51,0,0,0-.337.283l-.016.022-5.6-5.6a1.38,1.38,0,0,0-1.952,0,1.38,1.38,0,0,0,0,1.952l-.966-.966a1.378,1.378,0,0,0-2.337.75,1.308,1.308,0,0,0-.018.224,1.377,1.377,0,0,0,.405.977l.844.844a1.378,1.378,0,0,0-1.819,2.064l2.218,2.218a1.379,1.379,0,1,0-1.95,1.95l5.769,5.769a2.53,2.53,0,0,0,.474.044,2.524,2.524,0,0,0,2.523-2.525v-.622q.117.011.235.011A2.527,2.527,0,0,0,195.478,167.661Zm0,0" transform="translate(-169.303 -145.113)" fill="#fff"/>
    <path id="Path_151" data-name="Path 151" d="M163.866,78.822V91a1.379,1.379,0,0,1-1.379,1.381h-.065a1.364,1.364,0,0,1-.74-.259h0a1.378,1.378,0,0,1-.572-1.12v3.136a1.378,1.378,0,0,1-2.746.173V95.5a1.379,1.379,0,0,1-.4.977,1.293,1.293,0,0,1-.172.146A1.379,1.379,0,0,1,155.6,95.5V94.138a1.379,1.379,0,1,1-2.758,0V86.223l-.027,0A2.522,2.522,0,0,1,150.3,83.7V80.011a2.679,2.679,0,0,1,.782-1.891l1.153-1.155a2.887,2.887,0,0,0,.842-2.037v-.823h9.413v1.052a2.6,2.6,0,0,0,.091.712,2.864,2.864,0,0,0,.624,1.189A2.7,2.7,0,0,1,163.866,78.822Zm0,0" transform="translate(-138.834 -68.454)" fill="#fff"/>
    <path id="Path_152" data-name="Path 152" d="M195.941,78.822V91a1.379,1.379,0,0,1-1.379,1.381H194.5a1.364,1.364,0,0,1-.74-.259l.023-11.736a1.8,1.8,0,0,0-.046-.326,5.305,5.305,0,0,0-5.307-4.281H185.02a2.872,2.872,0,0,0,.129-.851V74.1h9.413v1.052a2.6,2.6,0,0,0,.091.712,2.865,2.865,0,0,0,.624,1.189,2.7,2.7,0,0,1,.664,1.765Zm0,0" transform="translate(-170.909 -68.453)" fill="#fff"/>
    <path id="Path_153" data-name="Path 153" d="M181.02,12.58H170.336a.637.637,0,0,1-.637-.638v-3.8a.637.637,0,0,1,.637-.638H181.02a.637.637,0,0,1,.637.638v3.8A.637.637,0,0,1,181.02,12.58Zm0,0" transform="translate(-156.756 -6.928)" fill="#fff"/>
    <path id="Path_178" data-name="Path 178" d="M38.695,28.518l-2.685-2.69a1.208,1.208,0,0,0-1.71,0l-.062.062-.176-.176a2.309,2.309,0,0,1-.5-.749.557.557,0,0,0-.041-.106,2.313,2.313,0,0,1-.133-.777v-.645a9.634,9.634,0,0,0,0-1.133,3.225,3.225,0,0,0-.945-2.151l-2.6-2.609a3.091,3.091,0,0,0-3.952-.355l-.276-.278V10.369A3.248,3.248,0,0,0,24.8,8.227,2.308,2.308,0,0,1,24.225,6.7V6.224h.039a1.211,1.211,0,0,0,1.209-1.21V1.21A1.211,1.211,0,0,0,24.264,0H13.579A1.211,1.211,0,0,0,12.37,1.21v3.8a1.211,1.211,0,0,0,1.209,1.21h.088v.251a2.3,2.3,0,0,1-.675,1.632L11.839,9.263a3.227,3.227,0,0,0-.949,2.295v3.69a3.084,3.084,0,0,0,.332,1.394,3.071,3.071,0,0,0-2.007.9l-2.6,2.609a3.228,3.228,0,0,0-.949,2.295v1.634a2.3,2.3,0,0,1-.675,1.632l-.174.175,0,0-.062-.062a1.208,1.208,0,0,0-1.71,0L.353,28.518a1.213,1.213,0,0,0,0,1.711l.92.921C1.5,31.374,3.7,33.368,3.7,33.368s-1.4-2.8-1.619-3.026l-.919-.921a.066.066,0,0,1,0-.094l2.685-2.69a.064.064,0,0,1,.091,0l.467.468h0L10.78,33.49l.714.716a.066.066,0,0,1,0,.094l-2.685,2.69a.064.064,0,0,1-.091,0L3.7,31.964c-.223-.224-2.315-2.426-2.539-2.2s.11,1.389.11,1.389L7.909,37.8a1.208,1.208,0,0,0,1.71,0l2.685-2.69a1.212,1.212,0,0,0,0-1.71l-.029-.029.339-.339a2.3,2.3,0,0,1,1.48-.671,3.237,3.237,0,0,0,2.083-.944l2.467-2.472a1.959,1.959,0,0,0,1.416-1.492,1.95,1.95,0,0,0,2.787-1.765V24.327A1.949,1.949,0,0,0,25.6,22.549V18.533L27.363,20.3a.572.572,0,1,0,.811-.807L26.707,18.02a1.948,1.948,0,0,1,2.316.332l2.6,2.609a2.091,2.091,0,0,1,.615,1.487v1.634a3.432,3.432,0,0,0,1.009,2.441l.178.178-.83.831-5.018,5.027-.28-.28-.009-.008-.049-.049a3.444,3.444,0,0,0-2.215-1,2.1,2.1,0,0,1-1.349-.612L21.8,28.735a.572.572,0,1,0-.807.811l1.878,1.868a3.237,3.237,0,0,0,2.083.944,2.3,2.3,0,0,1,1.479.671l.028.028a.55.55,0,0,0,.047.048l.264.264-.029.029a1.212,1.212,0,0,0,0,1.71l2.685,2.69a1.208,1.208,0,0,0,1.711,0l7.556-7.569a1.212,1.212,0,0,0,0-1.71ZM15.366,30.605a2.094,2.094,0,0,1-1.347.611,3.444,3.444,0,0,0-2.215,1l-.338.338-.3-.3-.012-.012L5.619,26.7l.178-.178a3.432,3.432,0,0,0,1.009-2.441V22.448a2.09,2.09,0,0,1,.615-1.487l2.6-2.609a1.948,1.948,0,0,1,2.319-.331l-1.469,1.472a.572.572,0,0,0,.81.808l1.755-1.758v7.141a1.95,1.95,0,0,0,2.8,1.76,1.96,1.96,0,0,0,.969,1.317Zm9.093-8.057a.807.807,0,1,1-1.614,0v-6.38a.572.572,0,0,0-1.144,0v9.517a.806.806,0,0,1-1.6.134V16.162a.578.578,0,0,0-1.156.007v9.516a1.962,1.962,0,0,0,.012.214v1.153a.807.807,0,1,1-1.614,0v-10.9a.572.572,0,0,0-1.144,0v9.53a.807.807,0,1,1-1.614,0V15.045a.572.572,0,1,0-1.144,0v1.968a.562.562,0,0,0-.138.066,1.957,1.957,0,0,1-1.268-1.831v-3.69a2.091,2.091,0,0,1,.615-1.487L13.8,8.916a3.431,3.431,0,0,0,1.009-2.441V6.224h1.15a.572.572,0,0,0,0-1.144H13.579a.065.065,0,0,1-.065-.066V1.21a.065.065,0,0,1,.065-.066H24.264a.066.066,0,0,1,.066.066v3.8a.065.065,0,0,1-.066.066H18.647a.572.572,0,1,0,0,1.144h4.434V6.7a3.454,3.454,0,0,0,.857,2.278,2.1,2.1,0,0,1,.522,1.387ZM37.885,29.42l-7.556,7.569a.061.061,0,0,1-.046.019.062.062,0,0,1-.046-.019L27.553,34.3a.066.066,0,0,1,0-.094l.432-.433h0l4.386-4.394,2.737-2.742a.064.064,0,0,1,.091,0l2.685,2.69A.066.066,0,0,1,37.885,29.42Zm0,0" transform="translate(0 0)" fill="#e5bc62"/>
    <path id="Path_179" data-name="Path 179" d="M194.425,32.8a.61.61,0,1,0,.609.61A.61.61,0,0,0,194.425,32.8Zm0,0" transform="translate(-179.035 -30.303)" fill="#e5bc62"/>
    <path id="Path_180" data-name="Path 180" d="M456.023,374.688a.61.61,0,1,0,.609.61A.61.61,0,0,0,456.023,374.688Zm0,0" transform="translate(-420.681 -346.112)" fill="#e5bc62"/>
    <path id="Path_181" data-name="Path 181" d="M110.23,443.813a.609.609,0,1,0-.609.61A.61.61,0,0,0,110.23,443.813Zm0,0" transform="translate(-100.697 -409.402)" fill="#e5bc62"/>
  </g>
</svg>
