<svg xmlns="http://www.w3.org/2000/svg" width="39.274" height="43.43" viewBox="0 0 39.274 43.43">
  <g id="attach" transform="translate(-64.084 -5.475)">
    <path id="Path_224" data-name="Path 224" d="M100.67,98H77.153a3.07,3.07,0,0,0-3.07,3.07v35.2a3.07,3.07,0,0,0,3.07,3.07h31.089a3.07,3.07,0,0,0,3.07-3.07V108.641Z" transform="translate(-8.976 -91.456)" fill="#fff"/>
    <path id="Path_225" data-name="Path 225" d="M344.558,108.641h-7.316a3.325,3.325,0,0,1-3.325-3.325V98Z" transform="translate(-242.223 -91.456)" fill="#e5bc62"/>
    <path id="Path_229" data-name="Path 229" d="M213.828,244H196.217a1.029,1.029,0,1,0,0,2.046h17.611a1.029,1.029,0,1,0,0-2.046Z" transform="translate(-123.268 -220.882)" fill="#4c8a9d"/>
    <path id="Path_230" data-name="Path 230" d="M213.828,316H196.217a1.029,1.029,0,1,0,0,2.047h17.611a1.029,1.029,0,1,0,0-2.047Z" transform="translate(-123.268 -285.515)" fill="#4c8a9d"/>
    <path id="Path_231" data-name="Path 231" d="M213.828,388H196.217a1.029,1.029,0,1,0,0,2.046h17.611a1.029,1.029,0,1,0,0-2.046Z" transform="translate(-123.268 -350.148)" fill="#4c8a9d"/>
    <path id="Path_232" data-name="Path 232" d="M103.357,17.135s0-.008,0-.012a.439.439,0,0,0-.005-.044,1.02,1.02,0,0,0-.292-.618L92.417,5.82a1.022,1.022,0,0,0-.681-.3l-.042,0H84.753c-9.381-.1-3.487.005-14.325,0H68.177a4.1,4.1,0,0,0-4.093,4.093v35.2A4.1,4.1,0,0,0,68.177,48.9H99.266a4.1,4.1,0,0,0,4.093-4.093V17.185C103.358,17.167,103.358,17.151,103.357,17.135ZM92.717,9.014l7.148,7.148H95.019a2.3,2.3,0,0,1-2.3-2.3V9.014Zm6.549,37.844H68.177a2.049,2.049,0,0,1-2.046-2.046V9.613a2.049,2.049,0,0,1,2.046-2.046H74.43c10.4.065,6.021.065,10.323,0H90.67V13.86a4.354,4.354,0,0,0,4.349,4.349h6.293v26.6A2.048,2.048,0,0,1,99.266,46.858Z" fill="#4c8a9d"/>
  </g>
</svg>
