<svg xmlns="http://www.w3.org/2000/svg" xmlns:xlink="http://www.w3.org/1999/xlink" width="192.221" height="96.878" viewBox="0 0 192.221 96.878">
  <defs>
    <linearGradient id="linear-gradient" x1="0.055" y1="-0.545" x2="1.055" y2="-0.545" gradientUnits="objectBoundingBox">
      <stop offset="0" stop-color="#f4f5f9"/>
      <stop offset="0.037" stop-color="#e5eef4"/>
      <stop offset="0.453" stop-color="#43a0c4"/>
      <stop offset="0.97" stop-color="#43a0c4"/>
    </linearGradient>
  </defs>
  <g id="Group_217" data-name="Group 217" transform="translate(-11.733 -13.132)">
    <text id="Geh_Weg" data-name="Geh Weg" transform="translate(26.414 100.011)" fill="#606060" font-size="41" font-family="SegoeUI, Segoe UI"><tspan x="0" y="0">Geh Weg</tspan></text>
    <path id="Path_52" data-name="Path 52" d="M203.248,18.591c-4.959-1.011-39.491-4.892-56.791-5.446s-40.318,17.217-44.481,17.121S79.61,22.741,63.736,16.993s-51.93,3.562-51.93,3.562c-1.87,6.818,32.466,5.061,43.679,7.437S82.925,38.655,85.7,42.557s8.519,9.663,14.451,10.94,25.691-5.87,27.935-7.7-5.926-5.114-5.926-5.114l10.459-7.6c10.461-7.6,28.911-7.432,41.074-7.238S208.207,19.6,203.248,18.591Z" transform="translate(0 0)" fill="url(#linear-gradient)"/>
  </g>
</svg>
