<svg id="Group_189" data-name="Group 189" xmlns="http://www.w3.org/2000/svg" width="79.707" height="74.221" viewBox="0 0 79.707 74.221">
  <g id="Group_188" data-name="Group 188" transform="translate(0 0)">
    <path id="Path_136" data-name="Path 136" d="M78.369,50.588,66.29,38.508V24.554a4.569,4.569,0,0,0-9.137,0v4.817l-8.994-8.995a12.019,12.019,0,0,0-16.616.008l-30.2,30.2A4.57,4.57,0,0,0,7.8,57.049L38,26.845a2.7,2.7,0,0,1,3.7,0L71.906,57.049a4.57,4.57,0,1,0,6.463-6.461Z" transform="translate(-0.001 -17.047)" fill="#fff"/>
    <path id="Path_137" data-name="Path 137" d="M99.025,128.406a2.242,2.242,0,0,0-3.173,0l-26.568,26.56a2.249,2.249,0,0,0-.657,1.589v19.372a8.232,8.232,0,0,0,8.231,8.231H90.012V163.787h14.85v20.371h13.154a8.232,8.232,0,0,0,8.231-8.231V156.555a2.24,2.24,0,0,0-.657-1.589Z" transform="translate(-57.585 -109.937)" fill="#fff"/>
  </g>
</svg>
