<svg xmlns="http://www.w3.org/2000/svg" width="37.095" height="36.119" viewBox="0 0 37.095 36.119">
  <path id="Path_49" data-name="Path 49" d="M18.548,0A18.309,18.309,0,0,0,0,18.06a18.309,18.309,0,0,0,18.548,18.06A18.309,18.309,0,0,0,37.1,18.06,18.329,18.329,0,0,0,18.548,0ZM15.9,18.06a3.762,3.762,0,0,1-.174,1.129l4.919,2.395A4,4,0,0,1,25.86,20.6a3.769,3.769,0,0,1,1.448,4.978A3.973,3.973,0,0,1,22.337,27.4a3.8,3.8,0,0,1-2.289-4.669L15.128,20.34a4.036,4.036,0,0,1-4.443,1.4,3.839,3.839,0,0,1,0-7.359,4.036,4.036,0,0,1,4.443,1.4l4.919-2.395a3.872,3.872,0,0,1,2.325-4.772,4.053,4.053,0,0,1,5.076,1.86,3.844,3.844,0,0,1-1.483,5.08,4.075,4.075,0,0,1-5.322-1.017L15.724,16.93A3.762,3.762,0,0,1,15.9,18.06Zm0,0" fill="#e5bc62"/>
</svg>
