<svg id="students-cap" xmlns="http://www.w3.org/2000/svg" width="62.87" height="36.44" viewBox="0 0 62.87 36.44">
  <path id="Path_141" data-name="Path 141" d="M178.175,408.216l-18.474-5.9v9.855c0,4.556,8.274,8.249,18.48,8.249s18.48-3.694,18.48-8.249c0-.036-.011-.072-.012-.107v-9.748Z" transform="translate(-146.739 -383.98)" fill="#fff"/>
  <path id="Path_142" data-name="Path 142" d="M0,178.463l6.7,2.386.571-1.218,2.461-.208.351.364-2.112.5-.308.907s-4.771,9.929-4.07,14.787a6.176,6.176,0,0,0,5.954,0l.791-13.281v-1.106l4.431-.995-.313.767-3.3,1.069,1.528.543,18.755,5.747,18.755-5.747,12.68-4.515L31.435,166.422Z" transform="translate(0 -166.422)" fill="#fff"/>
</svg>
